<svg version="1.1" id="Layer_1" xmlns="http://www.w3.org/2000/svg" xmlns:xlink="http://www.w3.org/1999/xlink" x="0px" y="0px"
	 width="100%" viewBox="0 0 512 512" enable-background="new 0 0 512 512" xml:space="preserve">
<path fill="#000000" opacity="1.000000" stroke="none" 
	d="
M291.000000,513.000000 
	C194.023544,513.000000 97.547081,513.000000 1.035313,513.000000 
	C1.035313,342.398529 1.035313,171.797028 1.035313,1.097768 
	C171.559799,1.097768 342.119690,1.097768 512.839783,1.097768 
	C512.839783,171.666550 512.839783,342.333252 512.839783,513.000000 
	C439.130341,513.000000 365.315155,513.000000 291.000000,513.000000 
M365.671356,310.050751 
	C365.927704,309.754852 366.184052,309.458954 367.125153,308.969971 
	C370.091156,308.009186 373.057129,307.048431 376.847412,306.142029 
	C405.292023,299.927063 431.519409,288.658661 455.156403,271.580688 
	C467.788208,262.454041 478.963135,251.833069 487.562317,238.716507 
	C493.006561,230.412247 497.158325,221.508026 497.833862,211.484558 
	C499.079285,193.005020 489.413483,180.962067 473.807861,173.047791 
	C456.591614,164.316742 438.049408,162.198181 418.161011,163.045593 
	C412.600922,163.483307 407.004730,163.655334 401.487030,164.404984 
	C378.247528,167.562317 356.087036,174.340195 334.970947,184.570724 
	C327.784576,188.052444 323.491119,186.745773 318.753540,179.226807 
	C318.678375,176.933105 318.509827,174.638031 318.543030,172.345901 
	C318.778412,156.079926 319.677063,139.794327 319.149994,123.554405 
	C318.582214,106.058647 314.755188,88.992653 309.133179,72.377113 
	C307.915070,68.777107 308.449585,65.727020 311.274780,62.803333 
	C312.303406,61.738850 312.556305,58.974197 311.956848,57.464058 
	C310.109528,52.810257 307.679840,48.387623 305.522461,43.969528 
	C298.070648,45.454113 297.453827,44.598244 292.557220,39.131813 
	C286.632629,32.517754 280.313263,26.036301 273.231018,20.747911 
	C267.209930,16.251898 259.668884,14.645436 251.127213,16.750126 
	C245.764221,19.263142 239.862946,21.031391 235.147034,24.439728 
	C224.365463,32.231853 217.466766,43.348793 211.967041,55.239944 
	C194.681610,92.613426 191.250488,131.990936 195.565887,172.398239 
	C196.082123,177.231949 195.536911,181.421326 191.412262,184.404037 
	C187.450806,187.268738 183.284668,186.680786 179.134506,184.662247 
	C155.259567,173.050110 130.157532,165.669510 103.672295,163.503738 
	C81.862022,161.720276 60.346275,162.924438 40.298260,172.978531 
	C17.460373,184.431747 10.258503,204.866623 20.695469,228.186310 
	C26.949690,242.160339 36.846916,253.351898 48.335461,263.179443 
	C75.004501,285.992645 106.182129,299.433502 140.170807,306.927307 
	C140.982574,307.106293 141.817795,307.186981 142.621414,307.393799 
	C151.767532,309.747833 154.214401,317.898956 148.486877,325.478699 
	C138.768723,338.339691 128.574890,350.943695 120.027985,364.563690 
	C106.565071,386.017639 97.516693,409.430084 94.113853,434.716339 
	C93.312157,440.673706 92.813080,446.285126 84.649323,446.696472 
	C85.177704,453.442749 85.662468,459.632141 86.162651,466.018402 
	C92.437805,465.282227 95.116417,468.564453 96.986511,473.729736 
	C103.155319,490.768158 116.277557,499.129456 134.837738,497.874054 
	C156.038040,495.655334 173.588562,485.402832 189.768814,472.464203 
	C214.868744,452.392975 233.833801,427.309174 249.279053,398.531403 
	C256.492157,393.039490 262.548676,394.243958 266.965729,402.060333 
	C267.701172,403.361816 268.362946,404.704895 269.098267,406.006439 
	C285.080872,434.295502 305.159393,459.074127 331.738403,478.109009 
	C345.923889,488.268097 361.172638,496.195282 379.905579,497.903717 
	C400.395264,498.467987 413.305664,488.949097 418.543304,469.074310 
	C422.727325,453.197327 421.113586,437.340881 417.412872,421.647156 
	C408.936798,385.702057 391.128204,354.686951 366.988068,327.065094 
	C361.149811,320.384735 360.890991,317.640503 365.101746,310.106232 
	C365.101746,310.106232 365.092651,310.202759 365.671356,310.050751 
z"/>
<path fill="#5F99D7" opacity="1.000000" stroke="none" 
	d="
M376.023132,306.087708 
	C373.057129,307.048431 370.091156,308.009186 366.480408,309.121643 
	C365.587982,309.583099 365.340332,309.892944 365.092651,310.202759 
	C365.092651,310.202759 365.101746,310.106232 364.722473,310.078552 
	C357.247375,311.649292 350.129761,313.158691 343.064514,314.882568 
	C339.358795,315.786743 339.051453,318.215759 341.381744,320.792297 
	C353.896973,334.630096 364.725189,349.654785 373.658508,366.040344 
	C388.208252,392.727631 398.612152,420.520447 398.114075,451.594452 
	C397.824493,469.661133 393.234009,485.582123 379.011444,497.699677 
	C361.172638,496.195282 345.923889,488.268097 331.738403,478.109009 
	C305.159393,459.074127 285.080872,434.295502 269.098267,406.006439 
	C268.362946,404.704895 267.701172,403.361816 266.965729,402.060333 
	C262.548676,394.243958 256.492157,393.039490 248.566467,398.760498 
	C239.857361,397.957886 232.999985,400.568512 227.501053,406.184601 
	C223.693192,410.073608 220.467224,414.545380 217.096924,418.847412 
	C206.986755,431.752533 197.521591,445.219452 186.714706,457.508606 
	C171.914734,474.338501 154.140457,487.688660 134.008987,497.744781 
	C116.277557,499.129456 103.155319,490.768158 96.986511,473.729736 
	C95.116417,468.564453 92.437805,465.282227 86.162651,466.018402 
	C85.662468,459.632141 85.177704,453.442749 84.649323,446.696472 
	C92.813080,446.285126 93.312157,440.673706 94.113853,434.716339 
	C97.516693,409.430084 106.565071,386.017639 120.027985,364.563690 
	C128.574890,350.943695 138.768723,338.339691 148.486877,325.478699 
	C154.214401,317.898956 151.767532,309.747833 142.621414,307.393799 
	C141.817795,307.186981 140.982574,307.106293 140.170807,306.927307 
	C106.182129,299.433502 75.004501,285.992645 48.335461,263.179443 
	C36.846916,253.351898 26.949690,242.160339 20.695469,228.186310 
	C10.258503,204.866623 17.460373,184.431747 40.298260,172.978531 
	C60.346275,162.924438 81.862022,161.720276 103.672295,163.503738 
	C130.157532,165.669510 155.259567,173.050110 179.134506,184.662247 
	C183.284668,186.680786 187.450806,187.268738 191.412262,184.404037 
	C195.536911,181.421326 196.082123,177.231949 195.565887,172.398239 
	C191.250488,131.990936 194.681610,92.613426 211.967041,55.239944 
	C217.466766,43.348793 224.365463,32.231853 235.147034,24.439728 
	C239.862946,21.031391 245.764221,19.263142 251.712250,17.059669 
	C262.611176,25.585087 270.649292,35.714455 276.632416,47.375290 
	C293.045593,79.363785 297.726044,113.871605 297.921356,149.266846 
	C297.947815,154.061630 297.137054,158.856430 297.045990,163.657516 
	C296.906158,171.031372 299.723450,175.332092 306.664368,177.636139 
	C310.547241,178.925049 314.749023,179.253052 318.807129,180.014038 
	C323.491119,186.745773 327.784576,188.052444 334.970947,184.570724 
	C356.087036,174.340195 378.247528,167.562317 401.487030,164.404984 
	C407.004730,163.655334 412.600922,163.483307 418.913910,163.339264 
	C428.893188,165.408691 438.581573,165.950516 447.256775,169.198425 
	C470.518188,177.907211 478.459106,195.648865 474.141724,218.771149 
	C470.836365,236.473358 459.983398,250.120087 447.681854,262.379150 
	C433.238647,276.772491 416.281647,287.857788 397.825378,296.541687 
	C390.649445,299.918030 383.295837,302.916870 376.023132,306.087708 
M172.761154,263.384583 
	C167.227585,273.392609 168.784302,283.020813 175.870819,291.207703 
	C183.519440,300.043945 187.342926,309.729980 188.331451,321.361237 
	C189.414093,334.099854 196.133392,341.731354 208.613068,343.124268 
	C221.915878,344.609070 232.889221,349.384827 243.207336,357.731354 
	C251.860367,364.731049 261.826874,363.950500 271.105621,357.789032 
	C274.289124,355.675018 277.384705,353.377594 280.266022,350.871399 
	C284.610229,347.092743 289.581665,345.254730 295.262085,344.901245 
	C298.079346,344.725952 300.887207,344.273560 303.677460,343.813690 
	C314.672424,342.001495 323.401947,336.589203 324.786591,325.039642 
	C326.464905,311.040497 331.109039,299.069702 340.110840,288.077332 
	C346.731384,279.992798 345.875122,270.308624 340.101776,261.500183 
	C337.643616,257.749756 334.386169,254.490372 332.182953,250.614990 
	C330.018524,246.807861 328.432343,242.592819 327.158539,238.385376 
	C326.256042,235.404449 326.350342,232.130524 325.905212,229.000824 
	C323.960754,215.330032 316.524506,207.943085 302.858002,206.067261 
	C301.868896,205.931519 300.869659,205.805374 299.873718,205.793106 
	C289.826202,205.669357 282.030396,200.870193 274.420837,194.723236 
	C262.436890,185.042633 251.877029,184.658768 240.464127,194.156845 
	C231.597504,201.535873 222.121246,205.312927 210.704727,206.300018 
	C198.150742,207.385452 190.258118,213.980362 189.054901,226.064178 
	C187.631546,240.358948 182.165634,252.133240 172.761154,263.384583 
z"/>
<path fill="#3C86CF" opacity="1.000000" stroke="none" 
	d="
M379.458496,497.801697 
	C393.234009,485.582123 397.824493,469.661133 398.114075,451.594452 
	C398.612152,420.520447 388.208252,392.727631 373.658508,366.040344 
	C364.725189,349.654785 353.896973,334.630096 341.381744,320.792297 
	C339.051453,318.215759 339.358795,315.786743 343.064514,314.882568 
	C350.129761,313.158691 357.247375,311.649292 364.766754,310.098267 
	C360.890991,317.640503 361.149811,320.384735 366.988068,327.065094 
	C391.128204,354.686951 408.936798,385.702057 417.412872,421.647156 
	C421.113586,437.340881 422.727325,453.197327 418.543304,469.074310 
	C413.305664,488.949097 400.395264,498.467987 379.458496,497.801697 
z"/>
<path fill="#3C86CF" opacity="1.000000" stroke="none" 
	d="
M318.780334,179.620422 
	C314.749023,179.253052 310.547241,178.925049 306.664368,177.636139 
	C299.723450,175.332092 296.906158,171.031372 297.045990,163.657516 
	C297.137054,158.856430 297.947815,154.061630 297.921356,149.266846 
	C297.726044,113.871605 293.045593,79.363785 276.632416,47.375290 
	C270.649292,35.714455 262.611176,25.585087 252.109100,17.081413 
	C259.668884,14.645436 267.209930,16.251898 273.231018,20.747911 
	C280.313263,26.036301 286.632629,32.517754 292.557220,39.131813 
	C297.453827,44.598244 298.070648,45.454113 305.522461,43.969528 
	C307.679840,48.387623 310.109528,52.810257 311.956848,57.464058 
	C312.556305,58.974197 312.303406,61.738850 311.274780,62.803333 
	C308.449585,65.727020 307.915070,68.777107 309.133179,72.377113 
	C314.755188,88.992653 318.582214,106.058647 319.149994,123.554405 
	C319.677063,139.794327 318.778412,156.079926 318.543030,172.345901 
	C318.509827,174.638031 318.678375,176.933105 318.780334,179.620422 
z"/>
<path fill="#3C86CE" opacity="1.000000" stroke="none" 
	d="
M376.435272,306.114868 
	C383.295837,302.916870 390.649445,299.918030 397.825378,296.541687 
	C416.281647,287.857788 433.238647,276.772491 447.681854,262.379150 
	C459.983398,250.120087 470.836365,236.473358 474.141724,218.771149 
	C478.459106,195.648865 470.518188,177.907211 447.256775,169.198425 
	C438.581573,165.950516 428.893188,165.408691 419.341492,163.392303 
	C438.049408,162.198181 456.591614,164.316742 473.807861,173.047791 
	C489.413483,180.962067 499.079285,193.005020 497.833862,211.484558 
	C497.158325,221.508026 493.006561,230.412247 487.562317,238.716507 
	C478.963135,251.833069 467.788208,262.454041 455.156403,271.580688 
	C431.519409,288.658661 405.292023,299.927063 376.435272,306.114868 
z"/>
<path fill="#3C86CE" opacity="1.000000" stroke="none" 
	d="
M134.423370,497.809418 
	C154.140457,487.688660 171.914734,474.338501 186.714706,457.508606 
	C197.521591,445.219452 206.986755,431.752533 217.096924,418.847412 
	C220.467224,414.545380 223.693192,410.073608 227.501053,406.184601 
	C232.999985,400.568512 239.857361,397.957886 248.290558,398.995422 
	C233.833801,427.309174 214.868744,452.392975 189.768814,472.464203 
	C173.588562,485.402832 156.038040,495.655334 134.423370,497.809418 
z"/>
<path fill="#3C86CF" opacity="1.000000" stroke="none" 
	d="
M365.382019,310.126770 
	C365.340332,309.892944 365.587982,309.583099 366.138031,309.218201 
	C366.184052,309.458954 365.927704,309.754852 365.382019,310.126770 
z"/>
<path fill="#030304" opacity="1.000000" stroke="none" 
	d="
M172.925186,263.048950 
	C182.165634,252.133240 187.631546,240.358948 189.054901,226.064178 
	C190.258118,213.980362 198.150742,207.385452 210.704727,206.300018 
	C222.121246,205.312927 231.597504,201.535873 240.464127,194.156845 
	C251.877029,184.658768 262.436890,185.042633 274.420837,194.723236 
	C282.030396,200.870193 289.826202,205.669357 299.873718,205.793106 
	C300.869659,205.805374 301.868896,205.931519 302.858002,206.067261 
	C316.524506,207.943085 323.960754,215.330032 325.905212,229.000824 
	C326.350342,232.130524 326.256042,235.404449 327.158539,238.385376 
	C328.432343,242.592819 330.018524,246.807861 332.182953,250.614990 
	C334.386169,254.490372 337.643616,257.749756 340.101776,261.500183 
	C345.875122,270.308624 346.731384,279.992798 340.110840,288.077332 
	C331.109039,299.069702 326.464905,311.040497 324.786591,325.039642 
	C323.401947,336.589203 314.672424,342.001495 303.677460,343.813690 
	C300.887207,344.273560 298.079346,344.725952 295.262085,344.901245 
	C289.581665,345.254730 284.610229,347.092743 280.266022,350.871399 
	C277.384705,353.377594 274.289124,355.675018 271.105621,357.789032 
	C261.826874,363.950500 251.860367,364.731049 243.207336,357.731354 
	C232.889221,349.384827 221.915878,344.609070 208.613068,343.124268 
	C196.133392,341.731354 189.414093,334.099854 188.331451,321.361237 
	C187.342926,309.729980 183.519440,300.043945 175.870819,291.207703 
	C168.784302,283.020813 167.227585,273.392609 172.925186,263.048950 
M279.941742,333.225708 
	C286.759125,331.830383 293.546021,330.255981 300.402039,329.087341 
	C308.115570,327.772430 310.390350,326.147919 310.942932,318.333832 
	C311.879791,305.085358 316.177368,293.587433 325.134064,283.521729 
	C331.278900,276.616028 331.273529,273.389191 325.139832,266.483398 
	C316.322083,256.555634 311.983368,245.251648 310.999969,232.172348 
	C310.360107,223.662598 308.355103,221.670227 299.899567,221.000000 
	C287.035126,219.980301 275.794556,215.929642 265.987122,207.174927 
	C258.700256,200.670242 255.329498,200.650055 248.123383,207.100098 
	C238.327728,215.868011 227.112610,219.970673 214.235138,220.986328 
	C205.664459,221.662323 203.639847,223.636383 203.013733,232.032227 
	C202.038589,245.108551 197.774490,256.438019 188.933914,266.371979 
	C182.682312,273.396729 182.730530,276.673584 189.055054,283.824768 
	C197.608948,293.496735 201.880844,304.464264 202.928253,317.201752 
	C203.708328,326.688354 205.288162,328.291595 214.959991,329.082581 
	C227.723251,330.126373 238.933548,334.174255 248.213486,343.142181 
	C248.687317,343.600098 249.271591,343.946472 249.816437,344.327637 
	C255.666779,348.420776 258.357788,348.415955 264.248596,344.268524 
	C269.270630,340.732758 274.279633,337.178436 279.941742,333.225708 
z"/>
<path fill="#F0EDF0" opacity="1.000000" stroke="none" 
	d="
M279.618073,333.429016 
	C274.279633,337.178436 269.270630,340.732758 264.248596,344.268524 
	C258.357788,348.415955 255.666779,348.420776 249.816437,344.327637 
	C249.271591,343.946472 248.687317,343.600098 248.213486,343.142181 
	C238.933548,334.174255 227.723251,330.126373 214.959991,329.082581 
	C205.288162,328.291595 203.708328,326.688354 202.928253,317.201752 
	C201.880844,304.464264 197.608948,293.496735 189.055054,283.824768 
	C182.730530,276.673584 182.682312,273.396729 188.933914,266.371979 
	C197.774490,256.438019 202.038589,245.108551 203.013733,232.032227 
	C203.639847,223.636383 205.664459,221.662323 214.235138,220.986328 
	C227.112610,219.970673 238.327728,215.868011 248.123383,207.100098 
	C255.329498,200.650055 258.700256,200.670242 265.987122,207.174927 
	C275.794556,215.929642 287.035126,219.980301 299.899567,221.000000 
	C308.355103,221.670227 310.360107,223.662598 310.999969,232.172348 
	C311.983368,245.251648 316.322083,256.555634 325.139832,266.483398 
	C331.273529,273.389191 331.278900,276.616028 325.134064,283.521729 
	C316.177368,293.587433 311.879791,305.085358 310.942932,318.333832 
	C310.390350,326.147919 308.115570,327.772430 300.402039,329.087341 
	C293.546021,330.255981 286.759125,331.830383 279.618073,333.429016 
M296.866547,293.008820 
	C302.982941,293.038574 305.364349,291.670654 306.110992,285.744965 
	C306.913879,279.373138 307.604858,272.699768 306.602051,266.436951 
	C301.927277,237.240967 272.544800,218.604263 243.952927,226.194839 
	C215.656494,233.706985 199.555710,264.368958 209.451370,291.898804 
	C219.492798,319.834198 251.249985,333.245850 278.116119,320.897217 
	C284.793823,317.827850 286.072876,315.076752 284.547455,307.999725 
	C288.379944,303.015442 292.212402,298.031158 296.866547,293.008820 
z"/>
<path fill="#050403" opacity="1.000000" stroke="none" 
	d="
M283.940552,308.369568 
	C286.072876,315.076752 284.793823,317.827850 278.116119,320.897217 
	C251.249985,333.245850 219.492798,319.834198 209.451370,291.898804 
	C199.555710,264.368958 215.656494,233.706985 243.952927,226.194839 
	C272.544800,218.604263 301.927277,237.240967 306.602051,266.436951 
	C307.604858,272.699768 306.913879,279.373138 306.110992,285.744965 
	C305.364349,291.670654 302.982941,293.038574 296.186951,292.802246 
	C291.523590,290.213623 290.766357,286.895691 291.625061,282.392792 
	C296.276886,257.999725 276.794403,236.768021 252.596603,240.012970 
	C248.565216,241.037979 244.711060,241.654251 241.337799,243.272812 
	C226.788757,250.253677 218.912415,266.653900 222.250946,282.342285 
	C225.432129,297.291290 238.731918,309.226929 253.439377,310.066284 
	C260.004272,309.129089 266.337158,308.704376 272.175995,306.780396 
	C276.768616,305.267090 280.408020,304.810120 283.940552,308.369568 
z"/>
<path fill="#FDC244" opacity="1.000000" stroke="none" 
	d="
M252.995102,240.065399 
	C276.794403,236.768021 296.276886,257.999725 291.625061,282.392792 
	C290.766357,286.895691 291.523590,290.213623 295.776093,292.821289 
	C292.212402,298.031158 288.379944,303.015442 284.244019,308.184631 
	C280.408020,304.810120 276.768616,305.267090 272.175995,306.780396 
	C266.337158,308.704376 260.004272,309.129089 253.600067,309.778748 
	C254.578659,308.038086 255.817780,306.695099 257.108154,305.403351 
	C272.456696,290.038452 274.432800,267.108826 261.697418,249.609283 
	C259.179443,246.149384 255.915192,243.232635 252.995102,240.065399 
z"/>
<path fill="#FED05B" opacity="1.000000" stroke="none" 
	d="
M252.596603,240.012970 
	C255.915192,243.232635 259.179443,246.149384 261.697418,249.609283 
	C274.432800,267.108826 272.456696,290.038452 257.108154,305.403351 
	C255.817780,306.695099 254.578659,308.038086 253.155045,309.644806 
	C238.731918,309.226929 225.432129,297.291290 222.250946,282.342285 
	C218.912415,266.653900 226.788757,250.253677 241.337799,243.272812 
	C244.711060,241.654251 248.565216,241.037979 252.596603,240.012970 
z"/>
</svg>